<?xml version="1.0" encoding="iso-8859-1"?>
<!-- Uploaded to: SVG Repo, www.svgrepo.com, Generator: SVG Repo Mixer Tools -->
<svg fill="#000000" height="800px" width="800px" version="1.1" id="Layer_1" xmlns="http://www.w3.org/2000/svg" xmlns:xlink="http://www.w3.org/1999/xlink" 
	 viewBox="0 0 232.688 232.688" xml:space="preserve">
<g id="XMLID_350_">
	<g id="XMLID_351_">
		<path id="XMLID_352_" d="M97.688,61.344h120c8.284,0,15-6.716,15-15s-6.716-15-15-15h-120c-8.284,0-15,6.716-15,15
			S89.403,61.344,97.688,61.344z"/>
	</g>
	<g id="XMLID_439_">
		<path id="XMLID_440_" d="M217.688,101.344h-120c-8.284,0-15,6.716-15,15s6.716,15,15,15h120c8.284,0,15-6.716,15-15
			S225.972,101.344,217.688,101.344z"/>
	</g>
	<g id="XMLID_441_">
		<path id="XMLID_443_" d="M217.688,171.344h-120c-8.284,0-15,6.716-15,15c0,8.284,6.716,15,15,15h120c8.284,0,15-6.716,15-15
			C232.688,178.06,225.972,171.344,217.688,171.344z"/>
	</g>
	<g id="XMLID_444_">
		<path id="XMLID_445_" d="M48.785,104.408l-9.989-1.452l-4.467-9.052c-1.264-2.56-3.87-4.181-6.726-4.181
			c-2.854,0-5.462,1.621-6.726,4.181l-4.468,9.052l-9.988,1.452c-2.825,0.41-5.173,2.389-6.055,5.104
			c-0.882,2.715-0.146,5.695,1.897,7.688l7.228,7.045l-1.707,9.949c-0.483,2.814,0.674,5.658,2.983,7.336
			c1.307,0.95,2.853,1.433,4.409,1.433c1.193,0,2.392-0.285,3.489-0.861l8.936-4.698l8.936,4.698
			c1.098,0.577,2.296,0.861,3.489,0.861c0.007,0,0.015,0,0.021,0c4.142-0.001,7.499-3.358,7.499-7.5
			c0-0.629-0.077-1.241-0.223-1.825l-1.612-9.393l7.228-7.045c2.045-1.993,2.78-4.973,1.898-7.688
			C53.958,106.797,51.61,104.818,48.785,104.408z"/>
	</g>
	<g id="XMLID_446_">
		<path id="XMLID_447_" d="M48.785,34.408l-9.989-1.452l-4.467-9.052c-1.264-2.56-3.87-4.181-6.726-4.181
			c-2.854,0-5.462,1.621-6.726,4.181l-4.468,9.052l-9.988,1.452c-2.825,0.41-5.173,2.389-6.055,5.104
			c-0.882,2.715-0.146,5.695,1.897,7.688l7.228,7.045l-1.707,9.949c-0.483,2.814,0.674,5.658,2.983,7.336
			c1.307,0.95,2.853,1.433,4.409,1.433c1.193,0,2.392-0.285,3.489-0.861l8.936-4.698l8.936,4.698
			c1.098,0.577,2.296,0.861,3.489,0.861c0.007,0,0.015,0,0.021,0c4.142,0,7.499-3.358,7.499-7.5c0-0.629-0.077-1.241-0.223-1.825
			l-1.612-9.393l7.228-7.045c2.045-1.993,2.78-4.973,1.898-7.688C53.958,36.797,51.61,34.818,48.785,34.408z"/>
	</g>
	<g id="XMLID_448_">
		<path id="XMLID_449_" d="M48.785,174.408l-9.989-1.452l-4.467-9.052c-1.264-2.56-3.87-4.181-6.726-4.181
			c-2.854,0-5.462,1.621-6.726,4.181l-4.468,9.052l-9.988,1.452c-2.825,0.41-5.173,2.389-6.055,5.104
			c-0.882,2.715-0.146,5.695,1.897,7.688l7.228,7.045l-1.707,9.949c-0.483,2.814,0.674,5.658,2.983,7.336
			c1.307,0.95,2.853,1.433,4.409,1.433c1.193,0,2.392-0.285,3.489-0.861l8.936-4.698l8.936,4.698
			c1.098,0.577,2.296,0.861,3.489,0.861c0.007,0,0.015,0,0.021,0c4.142-0.001,7.499-3.358,7.499-7.5
			c0-0.629-0.077-1.241-0.223-1.825l-1.612-9.393l7.228-7.045c2.045-1.993,2.78-4.973,1.898-7.688
			C53.958,176.797,51.61,174.818,48.785,174.408z"/>
	</g>
</g>
</svg>