<?xml version="1.0" encoding="iso-8859-1"?>
<!-- Uploaded to: SVG Repo, www.svgrepo.com, Generator: SVG Repo Mixer Tools -->
<svg height="800px" width="800px" version="1.1" id="Capa_1" xmlns="http://www.w3.org/2000/svg" xmlns:xlink="http://www.w3.org/1999/xlink" 
	 viewBox="0 0 470 470" xml:space="preserve">
<g>
	<path style="fill:#FFD691;" d="M94.478,50h281.045c4.143,0,7.5,3.357,7.5,7.5h15V15H71.978v42.5h15
		C86.978,53.357,90.335,50,94.478,50z"/>
	<path style="fill:#FDF3C2;" d="M234,451.894v-24.32c-4.143,0-7.5-3.357-7.5-7.5V290.978c0-4.143,3.357-7.5,7.5-7.5h164.022V57.5
		h-15c0,4.143-3.357,7.5-7.5,7.5H94.478c-4.143,0-7.5-3.357-7.5-7.5h-15V455h158.916L234,451.894z"/>
	<path style="fill:#FAB43E;" d="M387.416,298.478H241.5v121.596c0,4.143-3.357,7.5-7.5,7.5v24.32L387.416,298.478z"/>
	<polygon style="fill:#3F993A;" points="252.107,455 398.022,455 398.022,309.085 	"/>
	<path style="fill:#570100;" d="M405.522,0H64.478c-4.143,0-7.5,3.357-7.5,7.5v455c0,4.143,3.357,7.5,7.5,7.5h341.045
		c4.143,0,7.5-3.357,7.5-7.5V7.5C413.022,3.357,409.665,0,405.522,0z M71.978,15h326.045v268.478H234c-4.143,0-7.5,3.357-7.5,7.5
		v129.096c0,4.143,3.357,7.5,7.5,7.5s7.5-3.357,7.5-7.5V298.478h145.916L230.894,455H71.978V15z M252.107,455l145.915-145.915V455
		H252.107z"/>
	<path style="fill:#570100;" d="M375.522,50H94.478c-4.143,0-7.5,3.357-7.5,7.5s3.357,7.5,7.5,7.5h281.045
		c4.143,0,7.5-3.357,7.5-7.5S379.665,50,375.522,50z"/>
</g>
</svg>